<svg width="509" height="48" viewBox="0 0 509 48" fill="none" xmlns="http://www.w3.org/2000/svg">
<path d="M0.1 37V0.499999H8.1V37H0.1ZM7.1 37V30.2H23.05V37H7.1ZM7.1 21.85V15.05H21.9V21.85H7.1ZM7.1 7.3V0.499999H22.7V7.3H7.1ZM48.6375 37L39.9875 24.2H36.1375L47.2875 9.6H55.6875L45.1875 23.2L45.2875 19.3L57.6375 37H48.6375ZM29.3375 37V0.499999H37.3375V37H29.3375ZM70.1305 37.85C66.9638 37.85 64.5305 36.8333 62.8305 34.8C61.1305 32.7333 60.2805 29.6333 60.2805 25.5V9.6H68.2805V25.9C68.2805 27.3667 68.6971 28.5333 69.5305 29.4C70.3638 30.2667 71.4805 30.7 72.8805 30.7C74.3138 30.7 75.4805 30.25 76.3805 29.35C77.2805 28.45 77.7305 27.2333 77.7305 25.7V9.6H85.7305V37H79.3805V25.45H79.9305C79.9305 28.2167 79.5638 30.5333 78.8305 32.4C78.1305 34.2333 77.0805 35.6 75.6805 36.5C74.2805 37.4 72.5471 37.85 70.4805 37.85H70.1305ZM93.107 37V9.6H99.457V21.35H99.007C99.007 18.55 99.357 16.2167 100.057 14.35C100.79 12.4833 101.89 11.0833 103.357 10.15C104.824 9.21667 106.607 8.75 108.707 8.75H109.057C112.257 8.75 114.69 9.8 116.357 11.9C118.057 13.9667 118.907 17.1167 118.907 21.35V37H110.907V20.9C110.907 19.4333 110.474 18.2333 109.607 17.3C108.74 16.3667 107.574 15.9 106.107 15.9C104.607 15.9 103.39 16.3833 102.457 17.35C101.557 18.2833 101.107 19.5167 101.107 21.05V37H93.107ZM137.024 37.9C135.091 37.9 133.324 37.55 131.724 36.85C130.158 36.15 128.791 35.1833 127.624 33.95C126.458 32.6833 125.558 31.2 124.924 29.5C124.324 27.8 124.024 25.9667 124.024 24V22.85C124.024 20.8833 124.308 19.05 124.874 17.35C125.474 15.65 126.324 14.1667 127.424 12.9C128.558 11.6 129.908 10.6 131.474 9.9C133.041 9.16667 134.791 8.8 136.724 8.8C138.924 8.8 140.824 9.28333 142.424 10.25C144.024 11.1833 145.274 12.5833 146.174 14.45C147.074 16.2833 147.574 18.55 147.674 21.25L145.574 19.3V0.499999H153.624V37H147.274V25.65H148.374C148.274 28.25 147.724 30.4667 146.724 32.3C145.758 34.1333 144.441 35.5333 142.774 36.5C141.108 37.4333 139.191 37.9 137.024 37.9ZM139.024 31.2C140.258 31.2 141.374 30.9333 142.374 30.4C143.408 29.8333 144.224 29.0167 144.824 27.95C145.458 26.8833 145.774 25.6 145.774 24.1V22.25C145.774 20.7833 145.458 19.55 144.824 18.55C144.191 17.55 143.358 16.7833 142.324 16.25C141.291 15.7167 140.174 15.45 138.974 15.45C137.641 15.45 136.441 15.8 135.374 16.5C134.341 17.1667 133.524 18.1 132.924 19.3C132.324 20.4667 132.024 21.8333 132.024 23.4C132.024 25 132.324 26.3833 132.924 27.55C133.524 28.7167 134.358 29.6167 135.424 30.25C136.491 30.8833 137.691 31.2 139.024 31.2ZM177.43 37V28.9H176.08V20.1C176.08 18.7 175.747 17.65 175.08 16.95C174.414 16.25 173.347 15.9 171.88 15.9C171.147 15.9 170.18 15.9167 168.98 15.95C167.78 15.9833 166.547 16.0333 165.28 16.1C164.014 16.1667 162.864 16.2333 161.83 16.3V9.55C162.597 9.48333 163.497 9.41667 164.53 9.35C165.564 9.28333 166.63 9.23333 167.73 9.2C168.83 9.16666 169.864 9.15 170.83 9.15C173.63 9.15 175.98 9.55 177.88 10.35C179.814 11.15 181.28 12.3667 182.28 14C183.28 15.6 183.78 17.6667 183.78 20.2V37H177.43ZM168.68 37.7C166.714 37.7 164.98 37.35 163.48 36.65C162.014 35.95 160.864 34.95 160.03 33.65C159.197 32.3167 158.78 30.7333 158.78 28.9C158.78 26.9 159.297 25.2667 160.33 24C161.364 22.7 162.814 21.75 164.68 21.15C166.547 20.5167 168.697 20.2 171.13 20.2H176.98V24.65H171.08C169.68 24.65 168.597 25 167.83 25.7C167.097 26.3667 166.73 27.2833 166.73 28.45C166.73 29.55 167.097 30.45 167.83 31.15C168.597 31.8167 169.68 32.15 171.08 32.15C171.98 32.15 172.78 32 173.48 31.7C174.214 31.3667 174.814 30.8167 175.28 30.05C175.747 29.2833 176.014 28.2167 176.08 26.85L177.98 28.85C177.814 30.75 177.347 32.35 176.58 33.65C175.847 34.95 174.814 35.95 173.48 36.65C172.18 37.35 170.58 37.7 168.68 37.7ZM189.78 47.85V41.05H195.48C196.346 41.05 197.08 40.9333 197.68 40.7C198.28 40.5 198.763 40.15 199.13 39.65C199.496 39.15 199.796 38.4667 200.03 37.6L206.78 9.6H214.38L206.73 39.2C206.196 41.3333 205.446 43.0333 204.48 44.3C203.546 45.5667 202.28 46.4667 200.68 47C199.113 47.5667 197.113 47.85 194.68 47.85H189.78ZM198.38 36.4V30.15H204.18V36.4H198.38ZM195.08 36.4L186.68 9.6H194.73L202.68 36.4H195.08ZM231.311 37.95C228.911 37.95 226.777 37.5833 224.911 36.85C223.044 36.0833 221.461 35.05 220.161 33.75C218.894 32.45 217.927 30.9667 217.261 29.3C216.594 27.6 216.261 25.8167 216.261 23.95V22.8C216.261 20.9 216.594 19.1 217.261 17.4C217.961 15.6667 218.961 14.15 220.261 12.85C221.594 11.55 223.194 10.5333 225.061 9.8C226.927 9.03333 229.011 8.65 231.311 8.65C233.677 8.65 235.777 9.03333 237.611 9.8C239.477 10.5333 241.061 11.55 242.361 12.85C243.661 14.15 244.661 15.6667 245.361 17.4C246.061 19.1 246.411 20.9 246.411 22.8V23.95C246.411 25.8167 246.077 27.6 245.411 29.3C244.744 30.9667 243.761 32.45 242.461 33.75C241.194 35.05 239.627 36.0833 237.761 36.85C235.894 37.5833 233.744 37.95 231.311 37.95ZM231.311 31.2C232.877 31.2 234.177 30.8667 235.211 30.2C236.244 29.5333 237.027 28.6 237.561 27.4C238.127 26.2 238.411 24.8667 238.411 23.4C238.411 21.8333 238.127 20.4667 237.561 19.3C236.994 18.1 236.177 17.15 235.111 16.45C234.077 15.75 232.811 15.4 231.311 15.4C229.844 15.4 228.577 15.75 227.511 16.45C226.444 17.15 225.627 18.1 225.061 19.3C224.527 20.4667 224.261 21.8333 224.261 23.4C224.261 24.8667 224.527 26.2 225.061 27.4C225.594 28.6 226.394 29.5333 227.461 30.2C228.527 30.8667 229.811 31.2 231.311 31.2ZM261.121 37L274.271 0.499999H282.571L296.121 37H291.071L278.821 3.7L281.221 4.9H275.321L277.871 3.7L266.021 37H261.121ZM268.971 26.1L270.621 21.7H286.371L288.021 26.1H268.971ZM320.514 37L310.464 24.55H306.064L318.314 10.3H323.364L312.264 23.15L312.614 20.6L326.064 37H320.514ZM302.114 37V0.499999H306.914V37H302.114ZM332.076 37V10.3H336.876V37H332.076ZM327.976 14.1V10.3H336.876V14.1H327.976ZM333.426 6C332.359 6 331.559 5.71667 331.026 5.15C330.526 4.58333 330.276 3.86667 330.276 3C330.276 2.13333 330.526 1.41666 331.026 0.849998C331.559 0.283332 332.359 -4.76837e-07 333.426 -4.76837e-07C334.492 -4.76837e-07 335.276 0.283332 335.776 0.849998C336.309 1.41666 336.576 2.13333 336.576 3C336.576 3.86667 336.309 4.58333 335.776 5.15C335.276 5.71667 334.492 6 333.426 6ZM346.157 37V10.3H349.957V21.75H349.357C349.357 19.1167 349.707 16.9 350.407 15.1C351.14 13.2667 352.24 11.8833 353.707 10.95C355.173 9.98333 357.023 9.5 359.257 9.5H359.457C362.823 9.5 365.307 10.55 366.907 12.65C368.54 14.75 369.357 17.7833 369.357 21.75V37H364.557V20.75C364.557 18.6833 363.973 17.0333 362.807 15.8C361.64 14.5333 360.04 13.9 358.007 13.9C355.907 13.9 354.207 14.55 352.907 15.85C351.607 17.15 350.957 18.8833 350.957 21.05V37H346.157ZM378.139 37V10.3H381.939V21.3H381.739C381.739 17.4 382.589 14.55 384.289 12.75C386.022 10.9167 388.606 10 392.039 10H392.939V14.3H391.239C388.572 14.3 386.522 15.0167 385.089 16.45C383.656 17.85 382.939 19.8833 382.939 22.55V37H378.139ZM409.704 37.9C407.371 37.9 405.354 37.5 403.654 36.7C401.954 35.9 400.571 34.85 399.504 33.55C398.437 32.2167 397.637 30.7333 397.104 29.1C396.604 27.4667 396.354 25.8 396.354 24.1V23.2C396.354 21.4667 396.604 19.7833 397.104 18.15C397.637 16.5167 398.437 15.05 399.504 13.75C400.571 12.4167 401.921 11.3667 403.554 10.6C405.221 9.8 407.171 9.4 409.404 9.4C412.304 9.4 414.687 10.0333 416.554 11.3C418.454 12.5333 419.854 14.1333 420.754 16.1C421.687 18.0667 422.154 20.1667 422.154 22.4V24.55H398.454V20.95H418.654L417.554 22.9C417.554 21 417.254 19.3667 416.654 18C416.054 16.6 415.154 15.5167 413.954 14.75C412.754 13.9833 411.237 13.6 409.404 13.6C407.504 13.6 405.921 14.0333 404.654 14.9C403.421 15.7667 402.487 16.95 401.854 18.45C401.254 19.95 400.954 21.6833 400.954 23.65C400.954 25.55 401.254 27.2667 401.854 28.8C402.487 30.3 403.454 31.5 404.754 32.4C406.054 33.2667 407.704 33.7 409.704 33.7C411.804 33.7 413.504 33.2333 414.804 32.3C416.137 31.3667 416.937 30.2833 417.204 29.05H421.704C421.337 30.8833 420.604 32.4667 419.504 33.8C418.404 35.1333 417.021 36.15 415.354 36.85C413.687 37.55 411.804 37.9 409.704 37.9ZM428.969 37V10.3H432.769V21.75H432.169C432.169 19.15 432.502 16.95 433.169 15.15C433.869 13.3167 434.902 11.9167 436.269 10.95C437.636 9.98333 439.369 9.5 441.469 9.5H441.669C443.769 9.5 445.502 9.98333 446.869 10.95C448.269 11.9167 449.302 13.3167 449.969 15.15C450.636 16.95 450.969 19.15 450.969 21.75H449.569C449.569 19.15 449.919 16.95 450.619 15.15C451.319 13.3167 452.352 11.9167 453.719 10.95C455.119 9.98333 456.869 9.5 458.969 9.5H459.169C461.269 9.5 463.019 9.98333 464.419 10.95C465.819 11.9167 466.852 13.3167 467.519 15.15C468.219 16.95 468.569 19.15 468.569 21.75V37H463.769V20.7C463.769 18.5333 463.236 16.8667 462.169 15.7C461.102 14.5 459.619 13.9 457.719 13.9C455.752 13.9 454.169 14.5333 452.969 15.8C451.769 17.0333 451.169 18.7667 451.169 21V37H446.369V20.7C446.369 18.5333 445.836 16.8667 444.769 15.7C443.702 14.5 442.219 13.9 440.319 13.9C438.352 13.9 436.769 14.5333 435.569 15.8C434.369 17.0333 433.769 18.7667 433.769 21V37H428.969ZM478.658 37V10.3H483.458V37H478.658ZM474.558 14.1V10.3H483.458V14.1H474.558ZM480.008 6C478.941 6 478.141 5.71667 477.608 5.15C477.108 4.58333 476.858 3.86667 476.858 3C476.858 2.13333 477.108 1.41666 477.608 0.849998C478.141 0.283332 478.941 -4.76837e-07 480.008 -4.76837e-07C481.074 -4.76837e-07 481.858 0.283332 482.358 0.849998C482.891 1.41666 483.158 2.13333 483.158 3C483.158 3.86667 482.891 4.58333 482.358 5.15C481.858 5.71667 481.074 6 480.008 6Z" fill="white"/>
<path d="M503.166 37V30.9H508.966V37H503.166Z" fill="#FF0000"/>
</svg>
